<svg xmlns="http://www.w3.org/2000/svg" viewBox="0 0 671.14 36.96"><defs><style>.cls-1{fill:#ffbc0a;}</style></defs><g id="Capa_2" data-name="Capa 2"><g id="segunda_parte" data-name="segunda parte"><rect class="cls-1" y="25.39" width="671.14" height="11.57"/><polygon class="cls-1" points="0 25.39 0 0 7.39 0 7.39 26.04 0 25.39"/><polygon class="cls-1" points="15.43 25.39 15.43 0 22.82 0 22.82 26.04 15.43 25.39"/><polygon class="cls-1" points="30.86 25.39 30.86 0 38.25 0 38.25 26.04 30.86 25.39"/><polygon class="cls-1" points="45.96 25.39 45.96 0 53.36 0 53.36 26.04 45.96 25.39"/><polygon class="cls-1" points="61.39 25.39 61.39 0 68.79 0 68.79 26.04 61.39 25.39"/><polygon class="cls-1" points="76.82 25.39 76.82 0 84.21 0 84.21 26.04 76.82 25.39"/><polygon class="cls-1" points="90.96 25.39 90.96 0 98.36 0 98.36 26.04 90.96 25.39"/><polygon class="cls-1" points="106.39 25.39 106.39 0 113.79 0 113.79 26.04 106.39 25.39"/><polygon class="cls-1" points="121.82 25.39 121.82 0 129.21 0 129.21 26.04 121.82 25.39"/><polygon class="cls-1" points="136.93 25.39 136.93 0 144.32 0 144.32 26.04 136.93 25.39"/><polygon class="cls-1" points="152.04 25.39 152.04 0 159.43 0 159.43 26.04 152.04 25.39"/><polygon class="cls-1" points="167.46 25.39 167.46 0 174.86 0 174.86 26.04 167.46 25.39"/><polygon class="cls-1" points="182.89 25.39 182.89 0 190.29 0 190.29 26.04 182.89 25.39"/><polygon class="cls-1" points="197.04 25.39 197.04 0 204.43 0 204.43 26.04 197.04 25.39"/><polygon class="cls-1" points="212.46 25.39 212.46 0 219.86 0 219.86 26.04 212.46 25.39"/><polygon class="cls-1" points="227.89 25.39 227.89 0 235.29 0 235.29 26.04 227.89 25.39"/><polygon class="cls-1" points="243 25.39 243 0 250.39 0 250.39 26.04 243 25.39"/><polygon class="cls-1" points="258.11 25.39 258.11 0 265.5 0 265.5 26.04 258.11 25.39"/><polygon class="cls-1" points="273.54 25.39 273.54 0 280.93 0 280.93 26.04 273.54 25.39"/><polygon class="cls-1" points="288.96 25.39 288.96 0 296.36 0 296.36 26.04 288.96 25.39"/><polygon class="cls-1" points="303.11 25.39 303.11 0 310.5 0 310.5 26.04 303.11 25.39"/><polygon class="cls-1" points="318.54 25.39 318.54 0 325.93 0 325.93 26.04 318.54 25.39"/><polygon class="cls-1" points="333.96 25.39 333.96 0 341.36 0 341.36 26.04 333.96 25.39"/><polygon class="cls-1" points="349.39 25.39 349.39 0 356.79 0 356.79 26.04 349.39 25.39"/><polygon class="cls-1" points="364.5 25.39 364.5 0 371.89 0 371.89 26.04 364.5 25.39"/><polygon class="cls-1" points="379.93 25.39 379.93 0 387.32 0 387.32 26.04 379.93 25.39"/><polygon class="cls-1" points="395.36 25.39 395.36 0 402.75 0 402.75 26.04 395.36 25.39"/><polygon class="cls-1" points="409.5 25.39 409.5 0 416.89 0 416.89 26.04 409.5 25.39"/><polygon class="cls-1" points="424.93 25.39 424.93 0 432.32 0 432.32 26.04 424.93 25.39"/><polygon class="cls-1" points="440.36 25.39 440.36 0 447.75 0 447.75 26.04 440.36 25.39"/><polygon class="cls-1" points="455.14 25.39 455.14 0 462.54 0 462.54 26.04 455.14 25.39"/><polygon class="cls-1" points="470.25 25.39 470.25 0 477.64 0 477.64 26.04 470.25 25.39"/><polygon class="cls-1" points="485.68 25.39 485.68 0 493.07 0 493.07 26.04 485.68 25.39"/><polygon class="cls-1" points="501.11 25.39 501.11 0 508.5 0 508.5 26.04 501.11 25.39"/><polygon class="cls-1" points="515.25 25.39 515.25 0 522.64 0 522.64 26.04 515.25 25.39"/><polygon class="cls-1" points="530.68 25.39 530.68 0 538.07 0 538.07 26.04 530.68 25.39"/><polygon class="cls-1" points="546.11 25.39 546.11 0 553.5 0 553.5 26.04 546.11 25.39"/><polygon class="cls-1" points="561.21 25.39 561.21 0 568.61 0 568.61 26.04 561.21 25.39"/><polygon class="cls-1" points="576.32 25.39 576.32 0 583.71 0 583.71 26.04 576.32 25.39"/><polygon class="cls-1" points="591.75 25.39 591.75 0 599.14 0 599.14 26.04 591.75 25.39"/><polygon class="cls-1" points="607.18 25.39 607.18 0 614.57 0 614.57 26.04 607.18 25.39"/><polygon class="cls-1" points="621.32 25.39 621.32 0 628.71 0 628.71 26.04 621.32 25.39"/><polygon class="cls-1" points="636.75 25.39 636.75 0 644.14 0 644.14 26.04 636.75 25.39"/><polygon class="cls-1" points="652.18 25.39 652.18 0 659.57 0 659.57 26.04 652.18 25.39"/><polygon class="cls-1" points="667.61 25.39 667.61 0 670.93 0 670.93 26.04 667.61 25.39"/></g></g></svg>